<mxfile host="app.diagrams.net" agent="Mozilla/5.0 (Windows NT 10.0; Win64; x64) AppleWebKit/537.36 (KHTML, like Gecko) Chrome/141.0.0.0 Safari/537.36 Edg/141.0.0.0" version="28.2.7">
  <diagram name="Página-1" id="bhbH0GqIw7XgeycxKyBF">
    <mxGraphModel dx="1418" dy="756" grid="1" gridSize="10" guides="1" tooltips="1" connect="1" arrows="1" fold="1" page="1" pageScale="1" pageWidth="1169" pageHeight="827" math="0" shadow="0">
      <root>
        <mxCell id="0" />
        <mxCell id="1" parent="0" />
        <mxCell id="diYSKDzpYC24NXD0CWWA-1" value="" style="rounded=0;whiteSpace=wrap;html=1;fillColor=#dae8fc;strokeColor=#6c8ebf;" vertex="1" parent="1">
          <mxGeometry x="40" y="40" width="120" height="160" as="geometry" />
        </mxCell>
        <mxCell id="diYSKDzpYC24NXD0CWWA-2" value="Interfaz de usuario" style="text;html=1;whiteSpace=wrap;strokeColor=none;fillColor=none;align=center;verticalAlign=middle;rounded=0;" vertex="1" parent="1">
          <mxGeometry x="45" y="36" width="110" height="30" as="geometry" />
        </mxCell>
        <mxCell id="diYSKDzpYC24NXD0CWWA-3" value="Aplicación web" style="rounded=0;whiteSpace=wrap;html=1;gradientColor=none;fillColor=#000000;fontColor=light-dark(#ffffff, #ededed);" vertex="1" parent="1">
          <mxGeometry x="50" y="80" width="100" height="40" as="geometry" />
        </mxCell>
        <mxCell id="diYSKDzpYC24NXD0CWWA-4" value="Aplicación movil" style="rounded=0;whiteSpace=wrap;html=1;fontColor=light-dark(#ffffff, #ededed);fillColor=#000000;" vertex="1" parent="1">
          <mxGeometry x="50" y="140" width="100" height="40" as="geometry" />
        </mxCell>
      </root>
    </mxGraphModel>
  </diagram>
</mxfile>
